<svg width="28" height="24" viewBox="0 0 28 24" fill="none" xmlns="http://www.w3.org/2000/svg">
<path d="M8.40037 12C11.1085 12 13.3004 9.4279 13.3004 6.25C13.3004 3.0721 11.1085 0.5 8.40037 0.5C5.69224 0.5 3.50037 3.0721 3.50037 6.25C3.50037 9.4279 5.69224 12 8.40037 12ZM11.7604 13.6429H11.3972C10.4872 14.1562 9.47662 14.4643 8.40037 14.4643C7.32412 14.4643 6.31787 14.1562 5.40349 13.6429H5.04037C2.25787 13.6429 0.000366211 16.292 0.000366211 19.5571V21.0357C0.000366211 22.3962 0.940991 23.5 2.10037 23.5H14.7004C15.8597 23.5 16.8004 22.3962 16.8004 21.0357V19.5571C16.8004 16.292 14.5429 13.6429 11.7604 13.6429ZM21.0004 12C23.3191 12 25.2004 9.79241 25.2004 7.07143C25.2004 4.35045 23.3191 2.14286 21.0004 2.14286C18.6816 2.14286 16.8004 4.35045 16.8004 7.07143C16.8004 9.79241 18.6816 12 21.0004 12ZM23.1004 13.6429H22.9341C22.326 13.8893 21.6829 14.0536 21.0004 14.0536C20.3179 14.0536 19.6747 13.8893 19.0666 13.6429H18.9004C18.0079 13.6429 17.1854 13.9458 16.4635 14.4335C17.531 15.7837 18.2004 17.5754 18.2004 19.5571V21.5286C18.2004 21.6415 18.1785 21.7493 18.1741 21.8571H25.9004C27.0597 21.8571 28.0004 20.7533 28.0004 19.3929C28.0004 16.215 25.8085 13.6429 23.1004 13.6429Z" fill="black" fill-opacity="0.8"/>
</svg>
