<svg width="24" height="24" viewBox="0 0 24 24" fill="none" xmlns="http://www.w3.org/2000/svg">
<path d="M12 0.000457764C5.232 0.000457764 0 4.95646 0 11.6405C0 15.1325 1.428 18.1685 3.768 20.2445C3.96 20.4005 4.08 20.6645 4.092 20.9285L4.152 23.0645C4.2 23.7485 4.884 24.1925 5.508 23.9165L7.884 22.8725C8.088 22.8005 8.316 22.7645 8.52 22.8005C9.6 23.1245 10.8 23.2805 12 23.2805C18.768 23.2805 24 18.3245 24 11.6405C24 4.95646 18.768 0.000457764 12 0.000457764ZM19.2 8.95246L15.684 14.5565C15.12 15.4325 13.92 15.6605 13.08 15.0005L10.272 12.9245C10.1474 12.831 9.99579 12.7805 9.84 12.7805C9.68421 12.7805 9.53263 12.831 9.408 12.9245L5.616 15.8045C5.112 16.2005 4.452 15.6005 4.8 15.0485L8.316 9.44446C8.88 8.56846 10.08 8.34046 10.92 8.96446L13.728 11.0765C13.8526 11.1699 14.0042 11.2205 14.16 11.2205C14.3158 11.2205 14.4674 11.1699 14.592 11.0765L18.384 8.19646C18.888 7.80046 19.548 8.40046 19.2 8.95246Z" fill="black"/>
</svg>
