<svg width="26" height="28" viewBox="0 0 26 28" fill="none" xmlns="http://www.w3.org/2000/svg">
<circle cx="13" cy="14.5" r="13" fill="#F9F6F6"/>
<path d="M22.5585 19.0702C22.4678 18.963 22.3788 18.8559 22.2913 18.7525C21.0892 17.327 20.3619 16.4666 20.3619 12.4311C20.3619 10.3418 19.8521 8.6275 18.8473 7.34179C18.1063 6.39196 17.1048 5.67143 15.7846 5.13893C15.7676 5.12966 15.7525 5.11751 15.7398 5.10304C15.265 3.54411 13.9656 2.5 12.5001 2.5C11.0347 2.5 9.73583 3.54411 9.26099 5.10143C9.24832 5.11537 9.23336 5.12714 9.21673 5.13625C6.13605 6.37964 4.63888 8.76518 4.63888 12.4295C4.63888 16.4666 3.91269 17.327 2.70949 18.7509C2.62206 18.8543 2.533 18.9593 2.44229 19.0686C2.20799 19.3456 2.05954 19.6826 2.01451 20.0398C1.96948 20.397 2.02976 20.7593 2.18821 21.0839C2.52535 21.7804 3.24388 22.2127 4.06405 22.2127H20.9422C21.7586 22.2127 22.4722 21.7809 22.8104 21.0877C22.9696 20.763 23.0304 20.4003 22.9858 20.0428C22.9411 19.6852 22.7928 19.3477 22.5585 19.0702ZM12.5001 26.5C13.2897 26.4994 14.0644 26.2892 14.7421 25.8919C15.4197 25.4945 15.975 24.9248 16.3491 24.243C16.3667 24.2104 16.3754 24.1738 16.3743 24.1368C16.3733 24.0999 16.3625 24.0638 16.343 24.0322C16.3236 24.0005 16.2961 23.9744 16.2632 23.9562C16.2304 23.9381 16.1933 23.9285 16.1556 23.9286H8.84572C8.80797 23.9284 8.77084 23.9379 8.73793 23.956C8.70502 23.9741 8.67746 24.0003 8.65793 24.032C8.63839 24.0636 8.62756 24.0997 8.62647 24.1367C8.62539 24.1737 8.6341 24.2103 8.65174 24.243C9.02578 24.9247 9.581 25.4944 10.2585 25.8917C10.9361 26.2891 11.7106 26.4993 12.5001 26.5Z" fill="black"/>
<circle cx="20" cy="3.5" r="3" fill="#FF2020"/>
<path d="M18.7075 4.5625L19.1689 4.52344C19.2031 4.74805 19.2821 4.91732 19.4058 5.03125C19.5311 5.14355 19.6816 5.19971 19.8574 5.19971C20.069 5.19971 20.248 5.11995 20.3945 4.96045C20.541 4.80094 20.6143 4.58936 20.6143 4.32568C20.6143 4.07503 20.5435 3.87728 20.4019 3.73242C20.2619 3.58757 20.078 3.51514 19.8501 3.51514C19.7085 3.51514 19.5807 3.54769 19.4668 3.61279C19.3529 3.67627 19.2633 3.75928 19.1982 3.86182L18.7856 3.80811L19.1323 1.96973H20.9121V2.38965H19.4839L19.291 3.35156C19.5059 3.20182 19.7313 3.12695 19.9673 3.12695C20.2798 3.12695 20.5435 3.23519 20.7583 3.45166C20.9731 3.66813 21.0806 3.94645 21.0806 4.28662C21.0806 4.61051 20.9862 4.89046 20.7974 5.12646C20.5679 5.41618 20.2546 5.56104 19.8574 5.56104C19.5319 5.56104 19.2658 5.46989 19.0591 5.2876C18.854 5.10531 18.7368 4.86361 18.7075 4.5625Z" fill="white"/>
</svg>
