<svg width="29" height="24" viewBox="0 0 29 24" fill="none" xmlns="http://www.w3.org/2000/svg">
<path d="M19.4619 9.23857L12.5019 4.66714C12.4145 4.60971 12.313 4.57674 12.2081 4.57173C12.1032 4.56672 11.9988 4.58987 11.9062 4.63871C11.8137 4.68755 11.7363 4.76025 11.6823 4.84904C11.6284 4.93783 11.5999 5.03938 11.6 5.14286V14.2857C11.5999 14.3892 11.6283 14.4907 11.6822 14.5796C11.736 14.6684 11.8134 14.7411 11.9059 14.79C11.9986 14.8389 12.103 14.862 12.2079 14.857C12.3129 14.852 12.4145 14.8189 12.5019 14.7614L19.4619 10.19C19.5415 10.1378 19.6067 10.0671 19.6518 9.98412C19.697 9.90113 19.7206 9.80844 19.7206 9.71429C19.7206 9.62013 19.697 9.52744 19.6518 9.44445C19.6067 9.36146 19.5415 9.29073 19.4619 9.23857ZM12.76 13.2186V6.21L18.0945 9.71429L12.76 13.2186ZM27.26 0H1.74C1.27852 0 0.835948 0.180612 0.509634 0.502102C0.183321 0.823593 0 1.25963 0 1.71429V17.7143C0 18.1689 0.183321 18.605 0.509634 18.9265C0.835948 19.248 1.27852 19.4286 1.74 19.4286H27.26C27.7215 19.4286 28.1641 19.248 28.4904 18.9265C28.8167 18.605 29 18.1689 29 17.7143V1.71429C29 1.25963 28.8167 0.823593 28.4904 0.502102C28.1641 0.180612 27.7215 0 27.26 0ZM27.84 17.7143C27.84 17.8658 27.7789 18.0112 27.6701 18.1183C27.5613 18.2255 27.4138 18.2857 27.26 18.2857H1.74C1.58617 18.2857 1.43865 18.2255 1.32988 18.1183C1.22111 18.0112 1.16 17.8658 1.16 17.7143V1.71429C1.16 1.56273 1.22111 1.41739 1.32988 1.31022C1.43865 1.20306 1.58617 1.14286 1.74 1.14286H27.26C27.4138 1.14286 27.5613 1.20306 27.6701 1.31022C27.7789 1.41739 27.84 1.56273 27.84 1.71429V17.7143ZM29 23.4286C29 23.5801 28.9389 23.7255 28.8301 23.8326C28.7213 23.9398 28.5738 24 28.42 24H0.58C0.426174 24 0.278649 23.9398 0.169878 23.8326C0.0611071 23.7255 0 23.5801 0 23.4286C0 23.277 0.0611071 23.1317 0.169878 23.0245C0.278649 22.9173 0.426174 22.8571 0.58 22.8571H28.42C28.5738 22.8571 28.7213 22.9173 28.8301 23.0245C28.9389 23.1317 29 23.277 29 23.4286Z" fill="black" fill-opacity="0.7"/>
</svg>
